<svg width="56" height="41" viewBox="0 0 56 41" fill="none" xmlns="http://www.w3.org/2000/svg">
<path d="M28.0008 0C12.5359 0 0 12.5359 0 28.0008C0 31.8045 0.768063 35.4299 2.14722 38.7338C2.66688 39.9835 4.28378 40.9527 5.63856 40.9527H6.16736C7.52214 40.9527 9.24571 40.049 10.0168 38.9365L11.6825 36.5317C12.4536 35.4193 13.8556 35.2913 14.8126 36.2483L15.1967 36.6323C16.1552 37.5924 17.5252 37.4446 18.2567 36.3047L26.1614 21.5545C26.8944 20.4146 28.1501 20.3674 28.9685 21.4463L37.917 35.718C38.7354 36.7984 40.4178 37.2632 41.675 36.7603L44.223 35.7362C45.4803 35.2303 47.4279 35.4056 48.5723 36.1309L51.5394 38.0039C52.6854 38.7277 54.0692 38.3117 54.5065 37.0301C55.4742 34.1971 56 31.1599 56 27.9992C56.0015 12.5359 43.4656 0 28.0008 0Z" fill="url(#paint0_linear_50_158)"/>
<defs>
<linearGradient id="paint0_linear_50_158" x1="2.24872e-07" y1="20.329" x2="55.208" y2="30.1051" gradientUnits="userSpaceOnUse">
<stop stop-color="#1AEDC7"/>
<stop offset="1" stop-color="#09A185"/>
</linearGradient>
</defs>
</svg>
